<svg xmlns="http://www.w3.org/2000/svg" width="399.9" height="107"><style>.st1{fill:#333}</style><path d="M154 70l-2-2-2 2-4 7c-2-3-4-6-8-6-3 0-2-2-2-4 3-10 4-20-1-30l-11-20c-2-3-3-7-7-6-4 0-5 4-6 7s-1 5-5 5c-3 0-4-1-5-3 0-2-2-3-3-5-3-4-7-3-9 1l-4 10C77 7 62 0 43 1 26 2 13 9 7 26c-7 17-5 34 8 49l-2 1C5 82 1 90 1 100l1 3c2 0 2-2 2-3 0-5 1-9 4-13 2-4 6-8 10-10 1 0 3 1 3-1 1-1-1-2-2-2C1 59 4 28 16 16 27 5 40 3 54 5c19 2 32 17 32 36 1 13-4 24-14 33-1 1-3 1-1 3 1 1 2 0 3-1l5-3c6-1 12-2 18-1 12 2 24 3 37 2 2-1 5 0 7 1 3 2 4 5 1 8-3 2-6 3-7 6-2 3-5 4-9 5l-26 2c-5 1-10 2-14 6-1 0-2 1-1 2h3c3-4 7-4 12-5 10-1 21-1 31-3l1 5 2 2 1-3c-2-5 1-9 5-12 5-4 10-8 13-15 5 10 3 17-4 25l-7 5-1 3h3l8-8c8-8 9-18 3-28zm-22-2c0 2-1 3-3 3-9 1-17 1-26-1-8-2-15-2-24 0 7-10 10-19 9-30v-2c-2-7 1-13 3-20 2-3 3-3 5 0l1 2c2 6 6 7 12 6l4-2 2-8c1-3 3-2 4-1v1l14 26c4 9 2 18-1 26z" stroke="#000" stroke-width="2" stroke-miterlimit="10"/><path class="st1" d="M215 25l-5 12c3 3 4 7 4 9l-2 7-3 1h-3l-1-5h3l1-3c0-2 0-5-3-9l3-9h-4v36h-5V23h10l1-1 4 3zm27 4h-4v29c0 3-1 5-3 5l-10 1-2-5h8l2-1V29h-18v-5h27v5zm-22 23v3h-4V34h13v18h-9zm0-13v8h5v-8h-5zM250 34l-2 1-4-4c6-3 11-7 13-11l6 2-2 1h11l3 2-2 4h10v13h-33v-8zm36 9v3h-40v-3h40zm-34 5h29v16h-6v-1h-17v1h-6V48zm4-14h8v-2h-8v2zm0 4h8v-1h-8v1zm3-11l-2 1h10l1-1h-9zm-1 25v2h17v-2h-17zm17 7v-2h-17v2h17zm2-27h-8v2h8v-2zm0 5h-8v1h8v-1zM311 44l-3 2c-1 1-3-1-3-2s1-3 3-3 3 1 3 3zm0 14l-3 2-3-2c0-1 1-3 3-3s3 1 3 3zM325 64h-8v-5h4V28h-4v-5h8v41z"/><path d="M209 99l-1-4h-8l-2 4h-3l8-21h2l7 21h-3zm-2-7l-3-8-3 8h6zM223 78l5 1 2 5-2 5-4 2 6 8h-3l-6-8h-2v8h-3V78h7zm-5 10h5l3-1 1-3-1-3h-8v7zM248 91l-2 6-5 2-6-2-2-6V78h3v13l1 4 3 1 4-1 1-4V78h3v13zM263 81v6h9v3h-9v6h9v3h-12V78h12v3h-9zM298 85c2 1 2 2 2 4v10h-3V89l-1-2-2-1-3 1-1 2v10h-3V89l-1-2-3-1-3 1-1 2v10h-2V83h2v1l4-1c2 0 4 0 5 2h1l5-2c2 0 3 0 4 2zM315 85l2 4v4l-2 4-5 2-5-2-2-4v-4l2-4 5-2c2 0 4 0 5 2zm-8 2l-1 2v4l1 2 3 1 3-1 1-2v-4l-1-2-3-1-3 1zM327 83v3h-4v7l1 2 3 1v3l-5-2-1-4v-7h-2v-3h2v-5h2v5h4zM334 80l-1 1-2-1 2-2 1 2zm-3 19V83h3v16h-3zM351 86l-3 2c-1-2-2-2-4-2l-2 1-1 2v4l1 2 2 1 4-2 3 1c-1 2-3 4-7 4l-4-2c-2-1-2-2-2-4v-4c0-2 0-3 2-4l4-2c4 0 6 1 7 3zM365 85l1 4v4c1 2 0 3-1 4l-5 2-5-2-2-4v-4l2-4 5-2c2 0 4 0 5 2zm-8 2l-1 2v4l1 2 3 1 3-1 1-2v-4l-1-2-3-1-3 1zM382 85l1 4v10h-2V89l-1-2-3-1-3 1-1 2v10h-3V83h3v1l4-1c2 0 3 0 5 2zM394 83l3 1c2 0 2 1 3 2l-3 2c0-2-1-2-3-2h-4v3h3l5 1 2 4-2 4-5 1-4-1-2-3 3-1c0 1 1 2 3 2l3-1 1-1-1-1-3-1-4-1c-2-1-2-2-2-3 0-2 0-3 2-4l4-1h1z"/></svg>